<svg xmlns="http://www.w3.org/2000/svg" height="800" width="1200" viewBox="-6.40953 -2.3901725 55.54926 14.341035"><path d="M.05292 3.91717c0 2.5086 2.00907 3.78742 4.10281 3.78742.96696 0 1.7646-.20285 2.45568-.53446.0748-.20284.14887-.40428.23354-.60642l-.1277-.0744c-.59514.40393-1.38148.57397-2.00872.57397-2.28494 0-3.40113-1.58362-3.40113-3.5179 0-1.4672.8823-3.03953 2.8695-3.03953.9458 0 1.74342.35101 1.99848.659.0321.26563.0638.53127.0638.79727l.0318.0314h.34043l.0314-.0314c-.0106-.266.0533-1.05269.20214-1.4986l-.0639-.0737C6.3242.23212 5.19708 0 4.31513 0 1.65801 0 .05287 1.5367.05287 3.91724M10.1713.19162c-.50977 0-1.01954-.031-1.55153-.0519l-.0314.0314v.30515l.0314.0314c.40393 0 .7232.0533.81845.13758.11747.1069.14852.20214.14852 2.67124V4.3914c0 2.4691-.031 2.56505-.14852 2.67088-.0952.0857-.41452.13864-.81845.13864l-.0314.0317v.3034l.0314.0314c.532-.0212 1.04176-.0526 1.55152-.0526s1.02094.0314 1.5106.0526l.0317-.0314v-.3034l-.0317-.0317c-.36266 0-.68157-.0529-.77718-.13864-.11712-.10583-.14887-.20179-.14887-2.67088 0-2.55446.0317-3.2145.0423-3.6188.24447-.0744.60677-.12735.91545-.12735 1.01107 0 1.69193.44697 1.69193 1.3515 0 .85125-.5849 1.59667-1.7138 1.59667-.10618 0-.20179-.0109-.3189-.0219l-.1062.19156c.84032 1.07492 1.79811 2.54388 2.62467 3.80436.2847-.0212.55951-.0526.84526-.0526.27657 0 .56374.0314.80786.0526l.0318-.0314v-.30339l-.0318-.0317c-.3189 0-.44662-.0639-.70132-.4258l-2.05458-2.9584c.88088-.21272 1.82068-.84067 1.82068-2.08632 0-1.2961-1.03469-1.59068-2.56575-1.59068-.59619 0-1.23472.0519-1.87219.0519m7.9714 3.22009c0-1.76706 1.12571-2.90618 2.6229-2.90618 1.15888 0 2.78342.7881 2.78342 3.52354 0 1.72438-.8389 3.17147-2.57069 3.17147-1.60408 0-2.83563-1.47884-2.83563-3.78883m-1.25448.38312c0 1.79881.89288 3.91195 3.79272 3.91195 2.42252 0 4.1222-1.8041 4.1222-4.03966 0-2.51213-1.71097-3.66712-3.8562-3.66712-2.28389 0-4.05872 1.41075-4.05872 3.79483m11.72316 3.18142c-.0212-.6918-.0423-1.47884-.0423-3.19193 0-1.4792.0212-2.35197.0423-3.05435.31891-.0529.61701-.085 1.19027-.085 1.9029 0 2.98768 1.12818 2.98768 3.04306 0 2.2031-1.1169 3.37326-3.20005 3.37326-.39335 0-.65899-.0106-.9779-.085M27.9848.1917c-.51012 0-1.01988-.0314-1.55152-.0522l-.0314.0317v.3055l.0314.0314c.40393 0 .72284.0526.8188.13688.11677.10618.14816.20214.14816 2.67158 0 3.47875-.0423 3.59551-.0737 3.69182-.0215.0642-.0956.11642-.44697.27411l-.0423.0526v.20038l.0321.0314c.37183-.0423.65864-.0519.91405-.0519.6156 0 1.18957.0519 2.00836.0519 3.01837 0 4.25133-2.19675 4.25133-3.98533 0-2.4892-1.61572-3.44205-4.33635-3.44205-.63817 0-1.17016.0522-1.7219.0522m10.48167 1.58659l1.19062 2.84268H37.2752zm.1062-1.639c-.74437 1.8094-1.84046 4.33246-2.78696 6.34858-.29704.63853-.32914.69251-.9779.71297l-.0325.0318v.3034l.0325.031c.38277-.0212.80822-.0526 1.22273-.0526.41487 0 .84067.0314 1.22308.0526l.0317-.031v-.3034l-.0317-.0318c-.5849-.0317-.86184-.0423-.86184-.2981 0-.13829.0219-.29774.67063-1.77659h2.80706c.60642 1.48943.71296 1.74484.71296 1.905 0 .10583-.0215.1697-.79728.1697l-.0318.0318v.30338l.0318.031c.45685-.0212.94615-.0526 1.4351-.0526.48931 0 .97861.0314 1.43616.0526l.0321-.031v-.30339l-.0321-.0318c-.47837-.0106-.57503-.0744-.69144-.27623-.28716-.4893-.60608-1.25589-2.9457-6.78533zM.23283 9.09538C.10407 9.09538 0 9.1998 0 9.32821c0 .12841.10407.23248.23283.23248h42.26525c.12841 0 .23212-.10407.23212-.23248 0-.1284-.1037-.23283-.23212-.23283z" fill="#444141"/></svg>